<mxfile host="app.diagrams.net" modified="2023-04-25T17:52:56.018Z" agent="Mozilla/5.0 (Windows NT 10.0; Win64; x64) AppleWebKit/537.36 (KHTML, like Gecko) Chrome/112.0.0.0 Safari/537.36" etag="eSjE2v-R9A_5rk8fnb1O" version="21.2.1" type="device">
  <diagram name="PÃ¡gina-1" id="6QZi4WCMIFFMg0MTW1cB">
    <mxGraphModel dx="1290" dy="-596" grid="1" gridSize="10" guides="1" tooltips="1" connect="1" arrows="1" fold="1" page="1" pageScale="1" pageWidth="827" pageHeight="1169" math="0" shadow="0">
      <root>
        <mxCell id="0" />
        <mxCell id="1" parent="0" />
        <mxCell id="xmPM8K7MMs6NxOVkgYwp-1" value="&amp;lt;&amp;lt;Entity&amp;gt;&amp;gt;&lt;br&gt;&amp;lt;&amp;lt;Root&amp;gt;&amp;gt;&lt;br&gt;Course " style="rounded=0;whiteSpace=wrap;html=1;" vertex="1" parent="1">
          <mxGeometry x="370" y="1757" width="120" height="60" as="geometry" />
        </mxCell>
        <mxCell id="xmPM8K7MMs6NxOVkgYwp-2" value="&amp;lt;&amp;lt;Value Object&amp;gt;&amp;gt;&lt;br&gt;Course Title" style="rounded=0;whiteSpace=wrap;html=1;" vertex="1" parent="1">
          <mxGeometry x="260" y="1647" width="120" height="60" as="geometry" />
        </mxCell>
        <mxCell id="xmPM8K7MMs6NxOVkgYwp-3" value="&amp;lt;&amp;lt;Value Object&amp;gt;&amp;gt;&lt;br&gt;Course Status " style="rounded=0;whiteSpace=wrap;html=1;" vertex="1" parent="1">
          <mxGeometry x="270" y="1860" width="120" height="60" as="geometry" />
        </mxCell>
        <mxCell id="xmPM8K7MMs6NxOVkgYwp-4" value="&amp;lt;&amp;lt;Value Object&amp;gt;&amp;gt;&lt;br&gt;Course Identifier" style="rounded=0;whiteSpace=wrap;html=1;" vertex="1" parent="1">
          <mxGeometry x="570" y="1754" width="120" height="60" as="geometry" />
        </mxCell>
        <mxCell id="xmPM8K7MMs6NxOVkgYwp-5" value="&amp;lt;&amp;lt;Value Object&amp;gt;&amp;gt;&lt;br&gt;Course Name" style="rounded=0;whiteSpace=wrap;html=1;" vertex="1" parent="1">
          <mxGeometry x="440" y="1647" width="120" height="60" as="geometry" />
        </mxCell>
        <mxCell id="xmPM8K7MMs6NxOVkgYwp-6" value="&amp;lt;&amp;lt;Value Object&amp;gt;&amp;gt;&lt;br&gt;Enrollment Limits" style="rounded=0;whiteSpace=wrap;html=1;" vertex="1" parent="1">
          <mxGeometry x="440" y="1860" width="120" height="60" as="geometry" />
        </mxCell>
        <mxCell id="xmPM8K7MMs6NxOVkgYwp-7" value="&amp;lt;&amp;lt;Value Object&amp;gt;&amp;gt;&lt;br&gt;Description" style="rounded=0;whiteSpace=wrap;html=1;" vertex="1" parent="1">
          <mxGeometry x="170" y="1754" width="120" height="60" as="geometry" />
        </mxCell>
        <mxCell id="xmPM8K7MMs6NxOVkgYwp-8" value="" style="endArrow=diamondThin;endFill=1;endSize=24;html=1;rounded=0;exitX=0.75;exitY=1;exitDx=0;exitDy=0;entryX=0.25;entryY=0;entryDx=0;entryDy=0;" edge="1" parent="1" source="xmPM8K7MMs6NxOVkgYwp-2" target="xmPM8K7MMs6NxOVkgYwp-1">
          <mxGeometry width="160" relative="1" as="geometry">
            <mxPoint x="890" y="1807" as="sourcePoint" />
            <mxPoint x="920" y="1766" as="targetPoint" />
          </mxGeometry>
        </mxCell>
        <mxCell id="xmPM8K7MMs6NxOVkgYwp-9" value="" style="endArrow=diamondThin;endFill=1;endSize=24;html=1;rounded=0;exitX=0.5;exitY=1;exitDx=0;exitDy=0;entryX=0.75;entryY=0;entryDx=0;entryDy=0;" edge="1" parent="1" source="xmPM8K7MMs6NxOVkgYwp-5" target="xmPM8K7MMs6NxOVkgYwp-1">
          <mxGeometry width="160" relative="1" as="geometry">
            <mxPoint x="570" y="1626" as="sourcePoint" />
            <mxPoint x="490" y="1707" as="targetPoint" />
          </mxGeometry>
        </mxCell>
        <mxCell id="xmPM8K7MMs6NxOVkgYwp-10" value="" style="endArrow=diamondThin;endFill=1;endSize=24;html=1;rounded=0;entryX=1;entryY=0.5;entryDx=0;entryDy=0;exitX=0;exitY=0.5;exitDx=0;exitDy=0;" edge="1" parent="1" source="xmPM8K7MMs6NxOVkgYwp-4" target="xmPM8K7MMs6NxOVkgYwp-1">
          <mxGeometry width="160" relative="1" as="geometry">
            <mxPoint x="570" y="1717" as="sourcePoint" />
            <mxPoint x="440" y="1767" as="targetPoint" />
          </mxGeometry>
        </mxCell>
        <mxCell id="xmPM8K7MMs6NxOVkgYwp-12" value="" style="endArrow=diamondThin;endFill=1;endSize=24;html=1;rounded=0;exitX=0.5;exitY=0;exitDx=0;exitDy=0;entryX=0.25;entryY=1;entryDx=0;entryDy=0;" edge="1" parent="1" source="xmPM8K7MMs6NxOVkgYwp-3" target="xmPM8K7MMs6NxOVkgYwp-1">
          <mxGeometry width="160" relative="1" as="geometry">
            <mxPoint x="510" y="1676" as="sourcePoint" />
            <mxPoint x="400" y="1767" as="targetPoint" />
          </mxGeometry>
        </mxCell>
        <mxCell id="xmPM8K7MMs6NxOVkgYwp-13" value="" style="endArrow=diamondThin;endFill=1;endSize=24;html=1;rounded=0;entryX=0.75;entryY=1;entryDx=0;entryDy=0;exitX=0.5;exitY=0;exitDx=0;exitDy=0;" edge="1" parent="1" source="xmPM8K7MMs6NxOVkgYwp-6" target="xmPM8K7MMs6NxOVkgYwp-1">
          <mxGeometry width="160" relative="1" as="geometry">
            <mxPoint x="110" y="1897" as="sourcePoint" />
            <mxPoint x="340" y="1797" as="targetPoint" />
          </mxGeometry>
        </mxCell>
        <mxCell id="xmPM8K7MMs6NxOVkgYwp-14" value="" style="endArrow=diamondThin;endFill=1;endSize=24;html=1;rounded=0;exitX=1;exitY=0.5;exitDx=0;exitDy=0;entryX=0;entryY=0.5;entryDx=0;entryDy=0;" edge="1" parent="1" source="xmPM8K7MMs6NxOVkgYwp-7" target="xmPM8K7MMs6NxOVkgYwp-1">
          <mxGeometry width="160" relative="1" as="geometry">
            <mxPoint x="450" y="1607" as="sourcePoint" />
            <mxPoint x="400" y="1767" as="targetPoint" />
          </mxGeometry>
        </mxCell>
        <mxCell id="xmPM8K7MMs6NxOVkgYwp-23" value="" style="shape=stencil(pZ3ZsiM3kkS/Rq807Mtzz/R/yEzVLVn3qGQl9Sx/P8DISN5yTx5c2rxpieBFZgKBWDw8fsh/+f3nH3/78kMKv//x7es/vvzXLz/98fMP+d9+SOmXX3/+8u2XP9Y//ZD//Yf8l799/fbl79++/uvXn/78999+3JL7n/7j63/uX/jvP/VKvdWytVL4nz//S7zl/H//4a9/yv/zl1+/l09T5FNH+dBUnn6/3FoX+ThRvmSVbygfdT0xgXy+jaHyAeWrrj8MlE/6/gOtP92G/X5F+aLPGwrKB32fIYJ8vNXv30+4TXre9fqiytN+CLeWRH7Qfgv++wPWn+etqXyH97Pko66nwfPmcWtF5WG/LfnYRb7C8+Z+60Hl4X0u+dRUntbTbkPXX+l9tlt5Uz7Yeki+3tpUeTiPSz7X9+Rl/x/WU25d989Bvtj3ovdf7ubjk/L51t/6vvlWbP0sH+x90vOm+/H4tHx6Sz6qfT7Kl7f228P8fVJ+/e+3fv/CXpF8mno/8n5e8kntFcqPW3/r98fdXfikfL/Nd/b/kq8mD/fdko+2HrDPqfl5afT+m5+XBvf1kg9qrzo9b711lR/0Pqu/n8m/n75f/9rgJF/uP/c5f2nJN5VPcJ8u+azryXDfLfmg8nhest4X8dZo/+T7n3/Kd9o/2f3bSetJer4S+nvJ/Ld0/4Cv5KPK4/uMer8nPo+P1/2UJ//n6b4/5Qf4J3u7f3+/rBdM+z/cyhR5iheWvPhv+e4gXMrHeeu6HvKvlnxuIk/nPY7b7CI/YP1LXuKLdSDg+y75WEQ+wX6L5k+Wu0P3Sl7u64L+bWz6fQvatyUv8V3B+GLJi/9Wb5G+b1X/vPJ+qPdw9ylf6X2u5ervd5Zvuv7J8nL/tnsA8Upe/LeG9iHmu/l7ylM8suQln9DuF9oreckntNtk+fD973e0hzHp+vvdoL6SF/vW7w7+K/mURR7357oevn//A/MnS741kSd/ZsnnIvLkD8TH9X+Xn7yeoPZhor+05PMQeYr3l7zepwEXNO/h+gd5WtC8laTyEwzcVP9tvTEyoEP3W4z4wcatdJWfYBAtPxDZIej36+SDPF1g3fw3vrC7+Uv57oG/kJf7aMkXkG9qP7dFQnnxr7bFgwPQ7HnL/UZ7IS/+9pKn97nMq8hXdGja/br6IF/gQmrmD1fcP1Xjr33DorzEI0ueLqRq+dt+vxFeyQeVH/j7Vb7XOhHwvarmo5Z8gQvG8kVLnhyU5Q+I/Lzv8Bfyen7n3QK8kJf8z5KnhGa5X58Pfzvgeoruh+1RU4L1bg0+yNP7Keo/74gAf1/uux1xUIJY88/pkRF6IS/xQkpckNB83Q6QqCBxy0nlMSGu/sMOSKgAoPZzBxhUALiHBw/5wgUPtSf7DVCCW+OX5w55JS/PW3E/ZNuflRNqd+vxkG8YIGXbz+zgZrWH60bj3+9J5ckfyBqPpIHnN2v9YnsUsH+sPrXksUCi9nZ5RBRg5/tu+SBP9j9rfLcdRErQqz+Z2T/M6g/nQwFG7+vMBa2s9ZQcMYDMmg9Z8hRgZD3vmRNGWe+LJU8BfFb/f8ljwtHyFRkLrknPb864H9ZfTyqPCU3LzxTcD0nzgZkTFknj8SU/8fcl/78rUPj7mr+qnFDW/POuoOHv6/5vuD+t/rLkeT0pqTwF8En929zvJ+6FvO7nfvcYrwPI+2l9yLN/GDU+WvJUAI56X+SJ5zFqPJIn3u9R64lLvuPzNsmnBSzYR/W3l3zG5632+5TwjWr/CwMOosbj5fFfXshLfnXJY4JJ7XlJaK+i2vPC8XLU/V8S3l/xvhsf8o8M2Cv5rPL8/sXfK4cEseZLN6IG7EPQ+GLJD/i+Qf29jSBCeannLnkq2AQ9j6XheQzqvy15fl7JLy15StBbfqz0e4Xrhbye344J4qD+Xhm3BPstWL1g3G+0V/LyvI8M2Cv5oPKUEA9az6rhvgNfyReVpwJzUHuy5Om+Dnqf1oj5qGUtp8pTQtPyn/Vxg7+SbyrP+03u9/rwkF/JJ5WneDlofbYWLBgEzecv+YHnS+spFQGIQe1zrWj/Xb5hfu9KnuJrl+/3G+HT8u2t9Q+8v67kG9pblZ93RMqn5SkfYvItoD9wJU/x/pU85SddPh7Oo+zPJf/Wfm4J/X9fTzrtZ/n9fLhPXZ78STu/rRz2m/hXrRzuF61XVgTUmj1c8rzfxD63hgBZuy+WPAEg7P5qHf3toP7wkuffl/pjGxjf2X295A+/L/thHu5f8TeWPPnD5s/00/0u/lJnQFhQvFYPGG+af9jjyb8NKs/3u+RDesL7N2r9vT8yHp/z//spXkhJ5RFwoOe3F8yHRz1fS57jU6lv9nqIx6vJI6BE6029IeA+Gh6gMYBD8wOdz3vS/PmSp/2W7Pt29PeS1pv6QH8p2fd6IDxf5a9k/0wGnGm9ZslzvkjirxHQ/ieNH8cBoKzx72B/ICsecjx2+Kv8cFN5Or9Z83sjoX+YtR695CnfZXjvkTDeybqfR8b8j9WDljzlq4vu51G44UT38+D4otj7L+g/F7U/g+vvVk8cHI9Yv9KSJ/+naD5wyWMDjN4vox3q15IvHQ3Pe71nDx7yHe1n1fhxydN9V9VfGhzvVPU3xsDvVW3/D7wfq9mTgfdLu1unD/KEF2rqP4/5Hp5kydN5b+ovLXmqjzTFb8+A8UJX/PBkAH3X/MmSJwB01/tixgN+SdfPeICh+dUlT/Wscb+dH/IJ811D67lLnuopU+3nTGgfpu6fyfnkqf7SzAh4ndo/ODPGvzEoYGUpUEI2GiJ7Zs6IPwAkD4WCELIYtSa6FNDntqafpUBB5FIYURWwymBlrVkYx5r03M+DX5wUOD0PSOWsln1W9Jw2dNf+ApYazJdYClQLiAZ2WQr4lootqfHWKLa9Od0XDY81G+Z/NxzPFBCRW7WCsBQQUtzuF94HBQwRm/pQS4FscGx2RDtesktBrV7HLOEGCVZVoDJF9HunMxDZgKdLAQuZXT2LpYCVxq6tMUuBUpFxaOwxD7XqocH3ZOcoDo3OlgK1Jy2Fbq+V0v1x2uY7ANqnbb7BBcdplm9wy8JUl3kyZj4F+w4D74edpLMlkZO9s1BDFbDNMJqZGRwmx/sF9UGBcM878ZBUAYE81lm2FShTYVCepYC9boa92grcfOdfGsEkRdFUc57aGdUIMHwjWT/45HqoA47n5I7JqojFrUBvqWlKfyvQeWiKeTopdA16JoP+Uje7NDHLceHWP+zItcLQuHNyXHXhqE8sxCdjdtgKhFSbFw+NZmbej8sHBfI1shVftwIls8LFQyPdQbx4aOSPMDzQ5Hp/NkDW5AA3G8JtK9CS0sUBItua88VeapQzc7s0mfXDHd2jgh9RVKgWcBwVmp1pVGhaqTgrqFd5VJjvvSX3+Y4KGscdFIbS8ZwVNJ9xUJiaoDsrvPlap93TrFCshntWaG99h2Ios7PChRFgBfXIDgrWKH9WqG9tjQ0EfMvMlEu7RLnzbKEld2M6+9W23vQMxdzQifwbm+/LLxTwBIoliOdE37tYB9tWoCU1c0MnQuKLcYIc7unSLel4VHA3FBXGxQE6KFy8Vla4eK2kMBXJcVbodqGQQg2WwToqtPf+QrxwdA8K9a2H3ujAt75DTRd33EHBLR8q5AsjcFB486GNNO+kULQKe1ZwN/SgoInBidmfWi9CS2yUrRf3NFUyq7XWHgKOalxCW4GW1C72EjWvL4VmppKqM7VZCvjQ/tqV72rH02C9l4JeigML3EtBd+vgjuh+T6x8TITQXvLgdSBGdEM2oyqQ67AUNPBj1PZSUOdkYIVjKejmGxjH1anEG1uBljQvnoHSp3VahHJo1Z62+Qb3ygcFR20FKrYGMzMDu3eatS9MLke3aJZvYOZkKfiXJoDmxqtano8QNy3ZtTsQwrEU/C0hx4FnEjuCdJp1WW4FYl3I2rY3O5fJy1XeG3ZrK0ZswsCtZsiPrQCGbANjPXdP38G4fGfH3t6loAkpLie0pt2BszMbR7v4DhQDtab9RbNjSNO6efcdDdlSaPYMyOAxrITf0S41t96dOU6GWb6OrsNSUG+Gu4zaVFjWLq+RqZwX25vq082IdA8lwqXg5TUyMxtI7GVOeIZu2PpdSIXX2sNFbZfOQ3c2pIYFvG7tcFuB4C/R8nyN+XuifTguaC8FPaIN3dAezWo0rMd16xHeCvTQyVy4hndc9xRww83XHRzRePNl7eve0AXaGkZ0sRXgBtq4a0dT0EMXi3YrVvy652Yq9jovBd1Llbd3NVeau9m7hzQVU15LQfMaR4VhD02udPdkTuUj2u3a5RaV3s1JZBLBPuwAVTYC4wLKQywuS8GXROHxExX+QYHgSH1evKVES5oXSyKrMdy7rxiLDuNqnhWxr0vBAU/UDDCi1YGYPWIp6JIKuqHD+K8n8++MZB+uYIPI8Lw3I66HjSg4oO1Gtg9XsMy5FNRfKthktxS0CMkQww1Cl4fOCPsdxTyBjLjrUc2rzPyWqlVpuNN3VNtLGV24paARSkL4xYauG3iWAo5haOqZ8H4YDm1LWNAezVwH5nsYDo6IfESbbW9moBjdMicRIeejm3MSsWAxvC56IKn0KysiaGt0pSWZPIdj+B0XMPDbMH8DntOVNbxUGzDVshSEamoGfmir7Y6JAfiwGsoG89OXtrBs/RfqPhpTv/TgfOuY6t0PBm0NA4gPRqpNm2CwXzQ89FIQisXBFD3TelYHZ3+mwfNGx3zr3v3WBUNB07Q2y6VAkKoZdfMNxuhOI/YZDR3daXm+wdTOM+mJGw2hbdO4oQYHHNPIlEfFzMlSkIL2YFT8NDqywXQT03yNpUBZ6d0eYX+BLpRpjH8j4/2wPYumCtSSsXwX7dnKGLxud0q+Q0JjPA0mud1GeoZibZ3cNr3dWuujpBho+/JJFQiTOI2pffAoqB3xWKspGoFqvYLMbTEtPO4MbdsB/VSFRLa1GT060zvOpsDkpYCbr2lysw+MgaZNhOqc0Z3NWsCZUmWaC7eDfnqtTWFhO63Af0GSOb3xQ3e1rb0i0GYnS6cq0MW+E76yJA7LZtfMyaHTf6fFZUlMJTCtkNoz1qefBZCHApMh7JrMVAXsvhuaX+oRqzS7NmYKuDWGmpl+IJQf2sG80878DHKA2sS8966zBlVAQ2bV48ZO4rSCxa558JLEm2kdw+NdUQ+qgNeudbpsIhf+DmIEGidon+0RHxSohrIVjEuHwHNzKNl9y2zIhp6HpYAu3LTxH0xPNKd69y3yM0ytWraANZSNMMmqQNXjaS2ylVsBps3kqeP0DOIJVK68TsPobpwLv1Y5cZVp+OdUY1y5OXNa4FcLWw2bLFcLO1hTcwL14LfarI6asJV4K8iHi5h1mNYqVnlc2VaQ1xpO30GsRmFQ71b43m8tjF+6VKDa7oVC50jRFRrWsi4V3lwSs3heKhyMgCqU44cThczB65UCtbBeKDB1y1YwblrqXvPdWiImyv0AlYNzMtWFK+F0pgVNkefpiCqh9jzdQBJlZWYw2gpRFdDRncoBkQ/poqmkSvmQ/TGsdG4c+E31KpfCwZBJTiBz1XJa6nG3FLGChDS7aYkdLKXiLpzMsfRpZq4hd+GWAn7pYeza6eSGNlPAkMZ878z8UDscsIEAVNbxgCPzyM9pIwAzj3jxKCsHxOhO65RPnPeeNmUwHfIaXQvaiTG6O9oNqkDlhCce6oMClQinNcnuWVu0NZqmvJ7DbT+ZpkjnRIgNP0Fz32ya58EuNc3dJx4n4PmlwzyWJ6zmocATE3dSzRQwnq42AuWQaqlaDN4zbug7VA2aNq0YfeliU2sOptIStM/BN68UJAZKPIdjF8iDKhBx1MxmBBIHHNlGN3ExeFp/3GG47bThvJtukS6UpB5ZOgQcBo44zBf2Gko65JeSdn5tik/aS9EmFEXOVRqi/EmS/0pBUsCb9ZWXpEOoDl6lsbbuKWaHEqGMqTvkyIw3PU5EMs+g5yFOLBztQqpNhsOivCFo48RywjCMbhyMRJg2XHCgEdi14qwKFPgNY12IA/k1hjHaRMasDyOC2AMGuYofTQGfwdp7Yudn6PbQjZ+h67UbmYR2I0JsCuPhGeTERabB3qgWOQ9c2x3Ndmvl79DU0Y0VccajaSYxVoyBNhxJnqGgZ7wBT0kVyAiMah+u8AGq9uEK+kvD5z2yJzDMdTgMPB1Fe/wiuw7DqseRKeRHUQTtk1ruWiErjixyJvHJQftBgVLAw8bSRaZJHFmz0pEH0Y+kQdNm7KOtYZPLYjrhKnXz8WiiXbO3WcHkL+2avT0DoouiHaDIJy5qqiXy+Lth85L2PGVGAeuA24gR+wg2gfaAhTO6jM1gydBnCWkizyDcqICpCgQA7O4J8FTEbiwke/A2Yda9XxSbarvlQdi9uoC4nzD0Avxh1oglr1QZeBS6dxEzWr1bzxdmBLv3QeOm682abtAcLXnJy3JFtzcDv3AvicX1jBLshmThMRW9qkPPFH69GjaNaY6L+goDof/diFC4n3RjK6TKj4nGnnU9XMPpNveVuSl71vfDtN096ZXcMbO65Juun5qMu82l5LGRSz6oPPFY9qjnvXGrk11M7/blNczw9KBuGtd7u/WmNLzFdq+jroeaZTaERN8P2X9v7+T2t+ZFevxebeh+q9yJPHROApfDm1Gtco9W63pnM3K1daueM7NAN0wCN/AaoKwyTUCzwjb6u8+pR0953A/N5oDhmJ9WbW4k5meWvHjHhbvrq80hPLW+65xPtA+tKkK8YJ6vFSukcld6UfvDLVDNmLw4rmw2F73w/sk2B5L3g+GqM6IcmjWJZeY2sOCHS4PN5wzz+7esKUegLSooL6PDveR1jjFWl5oxeXL4ueSlMSRhUN+smT6hf16NvCthCFOnok0TpgDqVNxlwnJdHZqkS0znNNQ+cyhcDXTJOLlq8UvCeKFajTWhf1W7IjkSpoWqpRgT5s721EqpS2DOs1pTW+IxLU0rKxHt/5KXgm9kEieDpUe0J7XpfcpNfLUquCfifVGNbjUy45O12nOPYDVymIjZ12r9FpxGqUX9Z25B3IRs+n5wLFDx74XnqyiQO/L5Mgq6iPHgkm/6fpD4LOvcyIjxfjXCicg8aclyRnhfbBZAXT+ed6PYOMrb96L4bslrAQLzGzVa/QFrXzWq/89Fzmq0KDwWrlp8F9j+BL2PAtufoBlsRklXm7Md2P4YdXhAf6laF2dgctuplcGA/nCZ+r0CU9ta/Hj4/aH5wKN80+9L+atinE4Hebvfj/JN9ydyBXffzwf5qPsH5ZtW4A/7we7ro3yy9bN8sPUzS3C39bO8+KtH+WjrJ/mi+dujfHtr/UX9fz7vG/ys8hQvbHldP+VzNjW17ofD73f9vhS/l+znl+KXYoSAgcc02hxOHjt69fsUP255ff+U/ylW8eQxfsVGFgREDZXs552aP4rN/gqYTyiW3w7ov5Xs9hzHgma3txQ/XslTPvBqPXgeL56X7ver90k1xavvdTqPdt75fdp+I7zt1X4m1OaW1/eD9+PVeTzI23nk82L2BMfiZi3RBgR3XdlDii/eli/agcZNdMXYSA/yVeP9o3zW73WQr2+tv/r9hfJNQfAB44XSNL47ytt+OMibPSHUzvLfkq2f5avu/4P8sN/ncQEWHx3ki/pLB3nzN3CMtLWzHOXN3yN8XLHWK+YO2vGR/T7ll4LvT4z3Db8aOP8QNJ/P9mTHp2Z/KF4O/ryYz4ma7w2cL7KBMGzPd35AnxfzycaeEzg/ljQfFRAIWJPbQ8zXGbCc/RPP/xzlPT6l/IbVdwLWx3d+zOLBQ/7tnXi2ZoV5HfIbNpc+MGV/0UYXxsTXovV6jnd2ftXyUXRerP4YEC9Rq9I8Rh6zUC/ymbweRZFivLDz55rPJ+4En3URMT6qNuQnYj20Nm0+iRivVaORjdhDt+sj+vtoTww/FpEvplpDXOTz1fX+YtxltYFDEfFLu/6l68EZGuYPMC9Ltc7NyPlbw5Mkzicbny13ClVjfEi8/6d1qfFciKD7P3E9Ouj9mPA+ana/M/i4RWtpY3xFVNq0hJ2ILWo8mxGP15L6D9z56zMqMg/ysBEVGf2HjX8wvAHjJaquH99/1vwhsxc044jLp/kXsp+5i8CnWRRm+7f4sWA+qhnbbeHzYrMvCk9QsK7RA96mqT0sPDSiaf2iYD23Wf6c2bya3UcF7XOz/H9hfEjXbp3CE1qso7uiv+FDNQ74NGv7Yu6lZvUdbjZqRlZQeWTH9PXgfpi+HtwP1jPw6FW6lO9B6ykV799uDZMV+Rq7tVU0jN+7xXcN49klr5xljN82vFY74ZnFH2uMP09aX2tYT9z4Z5U/4L2DPi/2U1jvc8fz1S2fyQwl3RjSO+ONDb/BhLndus54Ss/G5+t6qOesW76x8/63+KXzLBmjOh+nfg3J1w30D3vT/T8wf9KbMeXy+zfyiUP/hU3BGKchGHJfDO73MXLJwT1UNsmZWbS6D0zlfoRhk62wntWHkeuz/THyQJ6j26fmAyf3L0zFK07uTzE856EBbBhg9NBiNgyRupvY+C+ICY2B+0zDRV/dYViGgL5jRK91GDXCqZkwWpog8rwCyyOeGiKTNg7EyA+dDImYuL8xGRSLsakjW64j8WQKu8xOnazZsh1MYP2k3P6ggO3sxfIdCR2ipSAGI3LE+uQZ/6BALs6wFoLdFc3PoBhPBr0PA7Hszm7uf/dWcNx8VcuwsaAdHlXzAJEDv9HMLhU2M4Y8ioXNjJEkbVoBekt2N8d6mkEixcBNjcAjRTS7y/yKz3EGHxTI39wDE+S1Nm6YNy7npYA9/OOCogJnwRjx2VLAZnObgR7ZCR7WJLAUqKtgKSj5Ao+3HMa/G3nM6Ji2Wwd/h6mOZOQZt8MoH5cCpZKHlTbjYJKkYLt1Mg1TMJaAB4HiKwVtmGf3agajCpnMUhyNx+zAUhyNgI4RWD7w40SSZKO/EtMK7ElIxqqEJHo2i35XkYihK6m5P8D0N+GWkVVRXDJteP0uTDBpmFi+lDBzMQ3Zc2j9mcZekg68r8V6hRKT0hctluzuscM4jqIKOOXEyos7v0wPXY0ukSeqzWoFk4IVfB+WsVOczOun/IqVqQaNYChVpt5sRqJ3IOFuRq3GbdN73qwRMuIBasYc2LDwsCdT2F8g5ODs9pY6b76uqfsTz2W3XrsD3XrXkGazPfBf0GrXQPjFpkC1v4Cs3cP64Tgh4IMm0jwSxRqNK0FyppVYc8Ac8gXZ7WHEjrG9LQVkcBxW5UtsNYyAbikcaI3lO+SMAcfmQU6qgFvDmZYLs+OaC5e5drTZoqWWyGNGN4F1VAW8RadtDU7n+7yCzIx1m+Zb3lLH8HgrNFU4fGndfOwZTyvB54GB37QJ5ZkZHLfCVAWcvmRdVIVh7tN878Ipr2l1pBKZHXcaUUPCzRdDMGoE9n+uNJha/1qD8jlXGscBAfrgxxEErnAYcqAKxzEKrnAY1KAKx1EQqnAcNuEKh3EWugEnz6myLV6PIwiUOoZ7Zf3U1cgu0FTwRT0wFdvs6o2HPIzkkNEozM/hsyN2h/dhWou81srk+j7epZ2eQSx4PU5FkDtij9nhZxBQex2nCRuSAaqHRMLUqL0dqO+n8VgFduPMG2jx9Azp+3uuJYQuzampisZcI+4CtXya4SGpu8YTvreCzHiqPE/SB1tVxJ9sBRv/ha916JluB3J9y/U1LjFvBXmth8G4QzFV7Rh0iAvUJvt9NtG4B07oDIXJdsaV+/yLHnki2VDftR8GgVon9sZ28FQ1cdg7YyPn0HrWRmvQa+1G3ndIt1g1u2fe3tYe3guP9DN8cC/sKHb7DpVdUWOM2RyP/BekZagzxmenKmzqJjpYRpLZmbl7p1uGKuBolGawms5zF4xXbSMNWEGAR32cHlqQJp2pRKdB6/vk0SjVpp9OvqerGrInZ+4rBenuHFz6n9auPyKHl4YnHYfRWdVGszOj0CyGEErYYrWTtE0VMPNQ9EyPw4SNomOnduWdpzILSnQw1fce+iFL4vruNN7SUXjzZc25nid866DoysnBpM76qHw/JL1Fd9WayyI+/B0946QVs6WAdinZAPvGZRHDT47OGaCoU3OeQwleKUgWa/CghhntxHV2pY1zZzAobwYFKQ9G2c2gebIxeIxzUNr4cZhTZWmKwdZ7GHBrTB6jYAXhMfEZhs2e26NMCO9g3v1+KvoLQ4PXyewX+61PVUBki01V29+eS/9y4mbAVMuwhP9kRi8HSOwTwgqyWyeP3t3nK6kCgQaXghzReaDv7xpa7poyw0hke2/TxlAYSYRMJnYcRnS+ZzIx/kffUkJTuQeX2EPjW2q2lzIPkDEM0+T67vO++aCAe8lwWJMjlKWQ7S/gdIqqOYGZGWFkNerlfRwAdHqmC/aAjEcL0wcFymANIyWZPOJyTwlpqoATmKytbB5G1CTDGTPR8kh6A01mch7RlnRAq5knsMEAPCVEIpTJ2R+f4TEPo4LCxZIQ9BQulkQOVp8XS6Ii3lLwJVFCqtsc9Mnggm7jUnfcRRjxcbEkHPIwLpZ0QulPU+CxGRLS7GCT+wyi/QVsXLJGuVm506NpaDk59dgtnj4pVLN8jArp1Sxfw4RUr+aR8dTN3Z7TVQH7taz/Z+chuIFJwuOtwB1JknqcDY1At5FNs6Hr0C3wm8emMDXGnGReCskemvChPV68JQI9LYVmWwMbn4y4fGfNWEG9mc6bz9oyZke4Zw+aCJkdya13DjqrAnmV3UY2zY70EN2mPT7zo5cKbZp337lhfJqv0blj30Aes3OLuU17nFwMbsOsd+cmZBvCMTsijHYXr304bFse5sLxeMjW7Tx0vLKax0CdJ5UYgG7yKKBmOePngO1XCkmeYSB5xa6NJVN4q1t+DqR7aUY3vhV4PoVk1ic3QDb37gdPsCkWWvLIp2aUgGcF9e45d79JI6IqUN67JfPIBrepJxuTNrBTpBlIfBfc6DxEu+O4U3Qp6LU72C6Fi7dEl2Jz735gxN7cu+csXJ0XB4jc0GrjkCaXap+4g4fCZMLyqQMK5mQGJ2PMmxPj6erhwGTOp2GmcqIRqMOsxmSWHJ/qN5kmqmulaQMymGfJH5rQFNUGNW2MCL0lK3NOLq/VZpuPm1dq0/rDE0nzSkFt62S2qGbuz2Q6tmoZXUZ5VZvX9MRzvlLQwI87omsxj2yeKN80Fj0qqGd8ULChFGcFdXSPCn7iUCHZPX1U0GzoQSEqMues8OZDx4vdigrBPLKjQnrrLxSr0pwV/H5ABc/+HBU0r3FU0CTCQaHbpXhUiG9tvtIsUjwqCDzviYO8VqjmnEyMUHxwwBOa+UpBQxour+1RAPalkUu/WJWGh/U62fQTIvtKwXcrpbxKUgjJExf8SkGZF8KB4TnZRKSTRlTb9wkN7X8/ayivwEkjWBPyWcMGUrNGtmz2JzSkfe8TGjZi+qBh6MRPaKT3dkk25N0nNIzH5KDRdLN/QuPdt+u0BycNn0h21ohv/o3ig8uPGim9p2GTDD6hobnqiQmYnKy8ytYqJ8vNTaS7zPEi0KGAMxsTzbPH4JWCwKC2AlyV2SZSTW5IzJ5U5R765DU0duE3R5ItiaKKNG2q+sRGjWS0slsBbr5k6OND7JX6hUNBMKhkkxufzXevFNz9pdp+slkFcyJlSrJhv4eQNhnb81agh65WlZhYqk9XXhQl6NOVF0UNuruf3ZxTqhnsibT2ligXka68qERLMraErUBvKSmRxiEBkwxHOCeimpKDATjrlGyw3rM55FrBmIoPqbZkxGNzoPv7HEXxyXRhtNbTnZCEtxSdnY1B3dHG4c6BgLdofNc7zwtvKQ5Dlw3E+0ePHwfu1mjO2S4BsIJWVriMEbslL7iyEh1u0HFrLAUvWFH9Kbox7kipFdtV0Y32kmf/OiJRYrPNx7XM2CzbwWSg0cgxJ1NEbLYqe2jCJ0QjHpvM/bQZt5IqUOAfi+FEuLYfjc9tww3oTBc7041fazYsZENjHLMtiYEl0dOFFX2+mKzIUNHBWgqOpiFfIyY7QJXfUrRrtyImNVoQvzF4rKDQRibnjuEC2ohbw9j7J7f/Psk6HwqZO8MV7r/k6cYygojNo0Rof9vbzMdv3ZcbU0v4bKvdJibts7xfwn45I6PbwGYCiFi9I2LLrI3jmjyvuysGf8kjWsrc4YAot2Z1M+YOa7Z+7uhqyvA5OIK2gtOY6CBVDSXH5HlT6rHtpgUqmVmr1eD57dq1N9ibqhd9Iljd1WTaYLfCm9H4zi9KzDM6GtGicfMG7qO8Nvg15ISyy/UJqn8hLwZ0Q+RpPqd1xlWe/2l03gxhLtaExvMTDKo+GHlu40BGwVjT+HAHNxzbOM/B80yMoHew/c/2vRJ2V2ZtNh4Jb9SsUebgJvGsoceInAfSDOGSp9gmmf3h+WPJ6NF5np4F+p3Tg8ma6Cfej0mTIX1gpJW0O2qDz8l1tc7tQ+in+7l3Dqh1P/dDhGLt843DOHv/DaFiUf2TDQrH9WiTd8X9YFmWzl2z5uJ2np9jGN/O3T7W0dEz7rdgBAnsHwYli9xYbbCHVmQ7kEjYuJTO89mCtf0zDUbQMKnzPEYLGJ6I5RfygmLaTCG4HrkfG6f1gkJWGzfKBs0oN27dtb7axvNDDLDROMEQjDOnHdYvvcpLnjDuhidvFe/3YAw7PB8pqL1tBeNyS3m2gvYw6P3YMrJHWVtzY7J7l09oD6/kyR66fER7eCVP/rPLB/SvruTZXrk8QcJNvp7Ou8vzflZ5Jg2/kifoqMtzK4Ltz9oxXnD5hvmQK3lKfrt8xdpoUP+/ctbLznstmLiz6S17wO079qfm03mZKk/FMrOHNSGmKWg8VXnEiNnnGg/+iYzbqafzLv7VHoCN/ozcLzVg/GL3V2GAld2PhUu6dv8ueWrqslp/4XqU+Q97YDy+T6nZbTAh/r74P0ue4k2bKFDa4TwKPHkjCdk/lPGT3JZq/mRhxt6g3WKlIlbfBiKUgvBq85/LyT7o+MyMgJdg4yozxoNBwdtLnhhzjAqm8LyfoPmxwvN14wXHLZ2XqPa2cD7BxuuWiP6SjaMo4RDfqX0IuN+i5ltKwPdv8Wxm8FDUjoTM9sri6zwP65H8Yeb5clHzk/lQ3Dby6Y75YYOablghyst+zmyvosbjmQmjku7PzP3eyVjSmTogGUk68yskrXdktm9J75dcGHumvK6ZK3JWttwk77h+qY9kjo9sKNsGKeLvKzt6xvYxyzdu3nx8XqkHZebpSUbkz/6VIZdyRNBCUkbNJZ9wPwhfbA5Yj8vqb+eA9Yis3Xg54HnJNi6d+w4sX524yyxfTI8giiHjRkjMfZ/1PKaBzIHZZn4MxuTqfZHYfub72/ggT/n2bBNzGvo/WfN1G/OI9QLpkk3Mpm3j3hNPeLNe5V0BfKdek3ioXVb7sCti+H4k374rULgfxH9LGc+7z1DKmO+ycY1PC/ZCXu6vlNDeWmvfExn5St7mWJG9LReTtSjeL3ofJa7vFxs8FDCfWbR1a0eIsB+Kogcj15uKzePkHldr3owT6WV89CX7e1XteeQu96r5gY1uRPn0/X7bc/6oA133zx4kiPI6BbYf8A/F1kPxi+EfYkO63GpNSzxfstr44YrTXgzvcRip2az5iO1h0/s0MlWc4VtiYbYKG0WZD/gciUci+5PN2poycx9ZW1pGaKHhkWJimiG9T/eE33fwVDExt59934j5h6H4nBgR72To6MPg56n53sj0odbuu+RxooiNYw3M5Gz9RQyMtvodw6/2agW/x+Vop+plYKrVuwd+rmj1+oFwuRi1QaXj9ok2OpPNc7SGMOab2uOspZ7OGNak/lJD+MweNS31O15/1nwLz355WqenPKavsuYrGpbft3WV/DmWCzY4W+VxPxeNTyted9Hu98pwD2u+rPy81cYs8fc1ho+CfB3R7gsemr28BTmPhUHZXfMVPB10DzWWfAhej9tbk/wDo/t9jiC6w3Hq/Z45PTz1vsicrgh6f2Us53r9ImF6Y+fPJR7H8DpF9W8TpkNStHgEywWO10oMl7MuAE63J7O3Ee2D58cip+ssX8RDary1LzK8zpiHI8JLU7Z4h9v0zH5GTh8WJd/kdNo2TypP53HHU13ksU/3kT1+ymMTrU0gCZx+blrvDpie2ddhUHl6/03jncDft2u+gme9PifsfpCn/WbzbQOGL8mIGwP3kdooq4O8DTk7yrd3fn9na+N78pLfO8hH9f+P8uXN37fzhenPpPW7o3x7Sz5r/egoX+z9sHy390Pp/KL36VHezu9Bvr+1fiNgPspne5+0H6yB8iDfNN91lJee0aP8eEu+K/4kYHpvydv7J3uVh+LVA6fzh8bX3N60q8/6fYlFcMlLPidgeqYY3ikg4cImDdL1ELyiGDsIj/Vb8lX3G8H9iuH/+X4vVm8NGL+UpPnhw+9njV8Cp+eNfDxgvLynEdv7oe9rFF2H3y9+HvF5jYgnIHyyFO2/CNxeZv1oPF6nVI2neErqRkOZ/0n73+LrwIxnNg8lYDv5c7LzB3mmkdN8OJePqt6/EfMDV/IEr7uUf3P92H5n7yeiv+rvn+Md/74R8417/+j6KV1ajBD7/yu//uG3H//4+c9/+dsv//zn7398+/qPLx///9++fvvy929f//XrT4//9PvPP/72Zf3b/wI=);lineShape=1;" vertex="1" parent="1">
          <mxGeometry x="151.62655390963346" y="1617.7068882493822" width="582.9083463709133" height="315.99312397470294" as="geometry" />
        </mxCell>
      </root>
    </mxGraphModel>
  </diagram>
</mxfile>
